<svg width="325" height="233" viewBox="0 0 325 233" fill="none" xmlns="http://www.w3.org/2000/svg">
<path d="M30 1H104.522C109.576 1.00005 114.542 2.32091 118.928 4.83105L147.177 20.998C150.474 22.8851 154.089 24.1507 157.844 24.7305L160.645 25.1631C163.864 25.6603 167.142 25.6466 170.357 25.123L172.775 24.7295C176.34 24.149 179.777 22.95 182.929 21.1865L212.412 4.69141C216.739 2.27092 221.614 1.00002 226.571 1H295C311.016 1 324 13.9837 324 30V203C324 219.016 311.016 232 295 232H30C13.9837 232 1 219.016 1 203V30C1 13.9837 13.9837 1 30 1Z" fill="#EDBCFF" fill-opacity="0.6" stroke="#CB3CFF" stroke-width="2"/>
</svg>
