<svg width="60" height="60" viewBox="0 0 60 60" fill="none" xmlns="http://www.w3.org/2000/svg">
<rect width="60" height="60" rx="30" fill="#FD2AE5"/>
<g clip-path="url(#clip0_201_17)">
<path d="M29.3848 15.082C28.8984 15.1992 28.5293 15.4102 28.1484 15.7852C27.7676 16.1719 27.5332 16.5879 27.4277 17.0977C27.3809 17.3144 27.3633 18.9492 27.3633 22.3828V27.3633H22.3828C18.9492 27.3633 17.3145 27.3809 17.0977 27.4277C16.5938 27.5332 16.1719 27.7676 15.7852 28.1484C14.748 29.1914 14.748 30.8145 15.7852 31.8457C16.1719 32.2266 16.5938 32.4609 17.0977 32.5723C17.3145 32.6191 18.8965 32.6367 22.3828 32.6367H27.3633V37.6172C27.3633 41.0508 27.3809 42.6855 27.4277 42.9023C27.5332 43.4121 27.7676 43.8281 28.1484 44.209C29.1973 45.252 30.8145 45.252 31.8457 44.2148C32.2266 43.8281 32.4609 43.4062 32.5723 42.9023C32.6191 42.6855 32.6367 41.1035 32.6367 37.6172V32.6367H37.6172C41.0508 32.6367 42.6855 32.6191 42.9023 32.5723C43.4121 32.4668 43.8281 32.2324 44.209 31.8516C45.252 30.8027 45.252 29.1914 44.2148 28.1484C43.8281 27.7617 43.3711 27.5156 42.8848 27.4219C42.7031 27.3867 40.5996 27.3633 37.6113 27.3633H32.6367V22.3828C32.6367 18.9492 32.6191 17.3144 32.5723 17.0977C32.4668 16.5937 32.2324 16.1719 31.8516 15.7852C31.1836 15.1172 30.2871 14.8594 29.3848 15.082Z" fill="white"/>
</g>
<defs>
<clipPath id="clip0_201_17">
<rect width="30" height="30" fill="white" transform="translate(15 15)"/>
</clipPath>
</defs>
</svg>
