<svg width="40" height="40" viewBox="0 0 40 40" fill="none" xmlns="http://www.w3.org/2000/svg">
<rect width="40" height="40" rx="20" fill="#E700C8" fill-opacity="0.7"/>
<g clip-path="url(#clip0_134_107)">
<path d="M24.3892 9.1918C24.1825 9.26816 23.9445 9.44785 23.8007 9.63652C23.6749 9.80722 13.9583 28.9035 13.864 29.173C13.5765 29.9861 14.2054 30.8711 15.0724 30.8711C15.2296 30.8711 15.4542 30.8352 15.5755 30.7947C16.0607 30.633 15.7597 31.1855 21.02 20.8311C23.6659 15.6156 25.8986 11.2223 25.9794 11.0605C26.1052 10.809 26.1277 10.7191 26.1277 10.4271C26.1321 10.1352 26.1142 10.0498 25.9974 9.82519C25.8446 9.52871 25.5437 9.26367 25.2562 9.17832C25.0316 9.11094 24.6003 9.11992 24.3892 9.1918Z" fill="white"/>
<path d="M12.6733 10.6563C10.827 10.9707 9.27274 12.3229 8.72469 14.1018C7.687 17.4619 10.4542 20.849 13.9491 20.4941C16.038 20.283 17.7225 18.841 18.2796 16.7836C18.3919 16.3793 18.4009 16.267 18.4009 15.5527C18.4009 14.843 18.3874 14.7217 18.2796 14.3174C18.2122 14.0703 18.0595 13.666 17.9382 13.419C17.2329 11.9725 15.9347 10.9752 14.3714 10.6787C13.994 10.6068 13.0372 10.5934 12.6733 10.6563ZM14.0255 13.2887C14.9059 13.4953 15.6427 14.2949 15.7864 15.2068C15.8987 15.9346 15.6561 16.6623 15.1306 17.1879C14.6409 17.6775 14.1378 17.8887 13.4639 17.8887C12.8171 17.8887 12.287 17.6686 11.8288 17.2104C11.0966 16.4781 10.9214 15.4584 11.3706 14.542C11.5368 14.2096 11.8468 13.8322 12.1163 13.6481C12.6868 13.2572 13.3606 13.1315 14.0255 13.2887Z" fill="white"/>
<path d="M25.9521 19.5104C24.9323 19.6182 23.8272 20.1438 23.086 20.876C22.3987 21.5543 21.972 22.291 21.7204 23.2164C21.6081 23.6207 21.5991 23.733 21.5991 24.4473C21.5991 25.157 21.6126 25.2783 21.7204 25.6826C21.9585 26.5631 22.4796 27.4301 23.1489 28.0635C23.8542 28.7328 24.7886 29.191 25.7634 29.3438C26.3069 29.4336 27.2862 29.3797 27.8163 29.2314C29.456 28.7822 30.7767 27.5064 31.2753 25.8982C32.1917 22.9334 30.1522 19.8428 27.0616 19.5104C26.554 19.4564 26.4731 19.4564 25.9521 19.5104ZM27.12 22.1742C27.8522 22.3674 28.4767 22.9469 28.7507 23.6836C29.0337 24.4518 28.8046 25.4625 28.2116 26.0555C27.7714 26.5002 27.2683 26.7338 26.6708 26.7697C25.1974 26.8641 23.9935 25.5523 24.2136 24.0969C24.3483 23.2164 25.0626 22.4078 25.8981 22.1787C26.1991 22.0979 26.8325 22.0934 27.12 22.1742Z" fill="white"/>
</g>
<defs>
<clipPath id="clip0_134_107">
<rect width="23" height="23" fill="white" transform="translate(8.5 8.5)"/>
</clipPath>
</defs>
</svg>
