<svg width="1130" height="204" viewBox="0 0 1130 204" fill="none" xmlns="http://www.w3.org/2000/svg">
<path d="M0 30C0 13.4315 13.4315 0 30 0H664.243C672.977 0 681.277 3.80622 686.977 10.4246L687.999 11.6126C699.976 25.5214 721.625 25.1885 733.168 10.918C738.754 4.01248 747.161 0 756.043 0H1100C1116.57 0 1130 13.4315 1130 30V174C1130 190.569 1116.57 204 1100 204H756.043C747.161 204 738.754 199.988 733.168 193.082C721.625 178.811 699.976 178.479 687.999 192.387L686.977 193.575C681.277 200.194 672.977 204 664.243 204H30C13.4315 204 0 190.569 0 174V30Z" fill="white"/>
<line x1="710" y1="23.584" x2="710" y2="180.416" stroke="black" stroke-width="4" stroke-dasharray="10 5"/>
</svg>
